# Blender v2.90.1 OBJ File: 'shotgun.blend'
# www.blender.org
mtllib shotgun.mtl
o Cube.001
v -0.308743 -0.959274 0.080000
v -0.308743 -0.613060 0.080000
v -0.308743 -0.959274 -0.080000
v -0.308743 -0.613060 -0.080000
v 1.691257 -0.959274 0.080000
v 1.691257 -0.613060 0.080000
v 1.691257 -0.959274 -0.080000
v 1.691257 -0.613060 -0.080000
v -0.905238 -0.959274 -0.080000
v -0.905238 -0.959274 0.080000
v -0.905238 -0.613060 0.080000
v -0.905238 -0.613060 -0.080000
v -1.095530 -0.959274 -0.080000
v -1.095530 -0.959274 0.080000
v -1.095530 -0.613060 0.080000
v -1.095530 -0.613060 -0.080000
v -1.451838 -0.972404 -0.080000
v -1.451838 -0.972404 0.080000
v -1.501732 -0.613060 0.080000
v -1.501732 -0.613060 -0.080000
v -0.308743 -0.613060 0.080000
v -0.308743 -0.613060 -0.080000
v 1.691257 -0.613060 -0.080000
v 1.691257 -0.613060 0.080000
v -0.308743 -0.468672 0.080000
v -0.308743 -0.468672 -0.080000
v -0.905238 -0.468672 0.080000
v -0.905238 -0.468672 -0.080000
v -1.095530 -0.468672 0.080000
v -1.095530 -0.468672 -0.080000
v -1.397892 -0.549667 0.080000
v -1.397892 -0.549667 -0.080000
v -0.308743 -0.468672 0.080000
v -0.308743 -0.468672 -0.080000
v 1.691257 -0.468672 -0.080000
v 1.691257 -0.468672 0.080000
v 4.636772 -0.613060 -0.080000
v 4.636772 -0.613060 0.080000
v 4.636772 -0.468672 -0.080000
v 4.636772 -0.468672 0.080000
v 1.691257 -0.812693 -0.080000
v 1.691257 -0.812693 0.080000
v 4.636772 -0.812693 -0.080000
v 4.636772 -0.812693 0.080000
v -1.540835 -0.605438 -0.016000
v -1.488915 -0.512970 -0.016000
v -1.540835 -0.605438 0.016000
v -1.488915 -0.512970 0.016000
v -1.564754 -0.564949 -0.016000
v -1.534317 -0.516808 -0.016000
v -1.564754 -0.564949 0.016000
v -1.534317 -0.516808 0.016000
v -2.054013 -1.189026 -0.080000
v -2.054013 -1.189026 0.080000
v -2.225755 -0.862430 0.080000
v -2.225755 -0.862430 -0.080000
v -2.199146 -1.470999 -0.080000
v -2.199146 -1.470999 0.080000
v -2.225755 -0.862430 0.080000
v -2.225755 -0.862430 -0.080000
v -4.277511 -1.989907 -0.080000
v -4.277511 -1.989907 0.080000
v -4.464745 -0.925238 0.080000
v -4.464745 -0.925238 -0.080000
v -2.364842 -0.756315 -0.080000
v -2.364842 -0.756315 0.080000
v -2.613291 -1.374598 0.080000
v -2.613291 -1.374598 -0.080000
v -1.502274 -0.612955 0.016000
v -1.502274 -0.612955 -0.016000
v -1.399153 -0.549159 -0.016000
v -1.399153 -0.549159 0.016000
v 4.606510 -0.613060 -0.080000
v 4.606510 -0.613060 0.080000
v 4.606510 -0.468672 0.080000
v 4.606510 -0.468672 -0.080000
v 4.606510 -0.812693 -0.080000
v 4.606510 -0.812693 0.080000
v 4.576559 -0.613060 0.080000
v 4.576559 -0.468672 0.080000
v 4.576559 -0.468672 -0.080000
v 4.576559 -0.812693 0.080000
v 4.576559 -0.613060 -0.080000
v 4.576559 -0.812693 -0.080000
v 4.606510 -0.468126 0.012917
v 4.606510 -0.468126 -0.012917
v 4.576559 -0.468126 0.012917
v 4.576559 -0.468126 -0.012917
v 4.606510 -0.433540 0.012917
v 4.606510 -0.433540 -0.012917
v 4.576559 -0.433540 0.012917
v 4.576559 -0.433540 -0.012917
vt 0.875000 0.750000
vt 0.875000 0.500000
vt 0.875000 0.500000
vt 0.875000 0.750000
vt 0.375000 0.250000
vt 0.625000 0.250000
vt 0.625000 0.500000
vt 0.375000 0.500000
vt 0.625000 0.750000
vt 0.375000 0.750000
vt 0.625000 1.000000
vt 0.375000 1.000000
vt 0.125000 0.500000
vt 0.125000 0.750000
vt 0.625000 0.500000
vt 0.625000 0.750000
vt 0.625000 0.250000
vt 0.375000 0.250000
vt 0.375000 0.250000
vt 0.625000 0.250000
vt 0.125000 0.750000
vt 0.125000 0.500000
vt 0.625000 1.000000
vt 0.375000 1.000000
vt 0.875000 0.500000
vt 0.875000 0.750000
vt 0.875000 0.750000
vt 0.875000 0.500000
vt 0.625000 1.000000
vt 0.375000 1.000000
vt 0.625000 1.000000
vt 0.625000 0.750000
vt 0.625000 1.000000
vt 0.125000 0.750000
vt 0.125000 0.500000
vt 0.625000 0.000000
vt 0.625000 0.250000
vt 0.625000 0.250000
vt 0.625000 0.000000
vt 0.125000 0.750000
vt 0.125000 0.500000
vt 0.375000 0.250000
vt 0.625000 1.000000
vt 0.375000 1.000000
vt 0.625000 0.250000
vt 0.625000 0.250000
vt 0.625000 0.250000
vt 0.875000 0.500000
vt 0.875000 0.750000
vt 0.875000 0.750000
vt 0.875000 0.500000
vt 0.875000 0.500000
vt 0.875000 0.750000
vt 0.625000 0.500000
vt 0.625000 1.000000
vt 0.625000 1.000000
vt 0.625000 0.250000
vt 0.625000 0.250000
vt 0.625000 1.000000
vt 0.625000 0.250000
vt 0.625000 0.000000
vt 0.625000 0.000000
vt 0.625000 0.250000
vt 0.625000 0.250000
vt 0.625000 1.000000
vt 0.625000 0.500000
vt 0.625000 0.500000
vt 0.625000 0.500000
vt 0.625000 0.500000
vt 0.625000 0.750000
vt 0.625000 0.500000
vt 0.625000 0.750000
vt 0.625000 0.750000
vt 0.625000 0.750000
vt 0.625000 0.500000
vt 0.625000 0.750000
vt 0.625000 0.750000
vt 0.625000 0.750000
vt 0.625000 0.750000
vt 0.625000 0.750000
vt 0.625000 0.500000
vt 0.625000 0.000000
vt 0.625000 0.250000
vt 0.625000 0.250000
vt 0.625000 0.250000
vt 0.625000 1.000000
vt 0.625000 1.000000
vt 0.625000 1.000000
vt 0.625000 1.000000
vt 0.875000 0.750000
vt 0.875000 0.500000
vt 0.875000 0.500000
vt 0.875000 0.750000
vt 0.625000 0.000000
vt 0.625000 0.250000
vt 0.875000 0.500000
vt 0.875000 0.750000
vt 0.625000 1.000000
vt 0.625000 1.000000
vt 0.375000 0.250000
vt 0.375000 0.250000
vt 0.625000 0.250000
vt 0.125000 0.750000
vt 0.125000 0.500000
vt 0.625000 1.000000
vt 0.375000 1.000000
vt 0.625000 0.000000
vt 0.625000 0.250000
vt 0.625000 0.250000
vt 0.625000 0.000000
vt 0.625000 1.000000
vt 0.375000 1.000000
vt 0.625000 0.000000
vt 0.125000 0.750000
vt 0.125000 0.500000
vt 0.375000 0.000000
vt 0.375000 0.250000
vt 0.125000 0.500000
vt 0.125000 0.750000
vt 0.125000 0.750000
vt 0.125000 0.500000
vt 0.375000 0.250000
vt 0.375000 1.000000
vt 0.625000 1.000000
vt 0.625000 1.000000
vt 0.375000 1.000000
vt 0.625000 0.500000
vt 0.625000 0.500000
vt 0.625000 0.500000
vt 0.625000 0.500000
vt 0.625000 0.750000
vt 0.625000 0.750000
vt 0.625000 0.500000
vt 0.625000 0.750000
vt 0.625000 0.750000
vt 0.625000 0.500000
vt 0.625000 0.750000
vt 0.625000 0.500000
vn 1.0000 0.0000 0.0000
vn 0.0000 0.0000 -1.0000
vn 0.0000 0.0000 1.0000
vn 0.0000 -1.0000 0.0000
vn -1.0000 0.0000 0.0000
vn -0.3256 0.9455 0.0000
vn 0.0368 -0.9993 0.0000
vn 0.0000 1.0000 0.0000
vn -0.2588 0.9659 0.0000
vn -0.1913 -0.9815 0.0000
vn -0.8610 -0.5086 0.0000
vn 0.3739 0.9275 0.0000
vn -0.8452 0.5344 0.0000
vn -0.0842 0.9964 0.0000
vn 0.3385 -0.9410 0.0000
vn -0.0802 0.9968 0.0000
vn 0.8891 -0.4576 0.0000
vn -0.9849 -0.1732 0.0000
vn 0.3468 -0.9379 0.0000
vn -0.2267 -0.9740 0.0000
vn 0.6066 0.7950 0.0000
vn -0.5236 0.8519 0.0115
vn -0.5236 0.8519 -0.0115
vn 1.0000 -0.0006 0.0000
vn -1.0000 -0.0003 0.0000
vn 0.0000 1.0000 -0.0082
vn 0.0000 1.0000 0.0082
usemtl None
s off
f 2/1/1 4/2/1 26/3/1 25/4/1
f 3/5/2 4/6/2 8/7/2 7/8/2
f 7/8/1 8/7/1 6/9/1 5/10/1
f 5/10/3 6/9/3 2/11/3 1/12/3
f 3/13/4 7/8/4 5/10/4 1/14/4
f 6/9/3 8/7/3 23/15/3 24/16/3
f 12/17/2 9/18/2 13/19/2 16/20/2
f 3/13/4 1/14/4 10/21/4 9/22/4
f 4/6/2 3/5/2 9/18/2 12/17/2
f 1/12/3 2/11/3 11/23/3 10/24/3
f 22/25/5 21/26/5 33/27/5 34/28/5
f 10/24/3 11/23/3 15/29/3 14/30/3
f 21/31/3 24/16/3 36/32/3 33/33/3
f 9/22/4 10/21/4 14/34/4 13/35/4
f 19/36/6 20/37/6 56/38/6 55/39/6
f 13/35/7 14/34/7 18/40/7 17/41/7
f 16/20/2 13/19/2 17/42/2 20/37/2
f 14/30/3 15/29/3 19/43/3 18/44/3
f 16/20/2 20/37/2 32/45/2 30/46/2
f 4/2/3 2/1/3 21/26/3 22/25/3
f 2/11/3 6/9/3 24/16/3 21/31/3
f 8/7/3 4/6/3 22/47/3 23/15/3
f 25/4/8 26/3/8 28/48/8 27/49/8
f 29/50/9 30/51/9 32/52/9 31/53/9
f 27/49/8 28/48/8 30/51/8 29/50/8
f 35/54/8 34/28/8 33/27/8 36/32/8
f 15/29/3 11/23/3 27/55/3 29/56/3
f 4/6/2 12/17/2 28/57/2 26/58/2
f 19/43/3 15/29/3 29/56/3 31/59/3
f 70/60/10 69/61/10 47/62/10 45/63/10
f 23/15/2 22/47/2 34/64/2 35/54/2
f 11/23/3 2/11/3 25/65/3 27/55/3
f 73/66/2 37/67/2 43/68/2 77/69/2
f 12/17/2 16/20/2 30/46/2 28/57/2
f 38/70/1 37/67/1 39/71/1 40/72/1
f 75/73/3 74/74/3 38/70/3 40/72/3
f 76/75/8 75/73/8 40/72/8 39/71/8
f 73/66/2 76/75/2 39/71/2 37/67/2
f 78/76/4 77/69/4 43/68/4 44/77/4
f 37/67/1 38/70/1 44/77/1 43/68/1
f 79/78/3 24/16/3 42/79/3 82/80/3
f 24/16/5 23/15/5 41/81/5 42/79/5
f 45/63/11 47/62/11 51/82/11 49/83/11
f 71/84/2 70/60/2 45/63/2 46/85/2
f 69/86/3 72/87/3 48/88/3 47/89/3
f 72/90/12 71/91/12 46/92/12 48/93/12
f 49/83/13 51/82/13 52/94/13 50/95/13
f 48/93/14 46/92/14 50/96/14 52/97/14
f 46/85/2 45/63/2 49/83/2 50/95/2
f 47/89/3 48/88/3 52/98/3 51/99/3
f 56/38/2 53/100/2 57/101/2 60/102/2
f 17/41/15 18/40/15 54/103/15 53/104/15
f 20/37/2 17/42/2 53/100/2 56/38/2
f 18/44/3 19/43/3 55/105/3 54/106/3
f 66/107/16 65/108/16 64/109/16 63/110/16
f 54/106/3 55/105/3 59/111/3 58/112/3
f 55/39/3 56/38/3 60/102/3 59/113/3
f 53/104/17 54/103/17 58/114/17 57/115/17
f 62/116/18 63/110/18 64/109/18 61/117/18
f 68/118/19 67/119/19 62/120/19 61/121/19
f 65/108/2 68/122/2 61/117/2 64/109/2
f 67/123/3 66/124/3 63/125/3 62/126/3
f 58/112/3 59/111/3 66/124/3 67/123/3
f 60/102/2 57/101/2 68/122/2 65/108/2
f 57/115/20 58/114/20 67/119/20 68/118/20
f 59/113/21 60/102/21 65/108/21 66/107/21
f 31/53/12 32/52/12 71/91/12 72/90/12
f 19/43/22 31/59/22 72/87/22 69/86/22
f 32/45/23 20/37/23 70/60/23 71/84/23
f 20/37/10 19/36/10 69/61/10 70/60/10
f 38/70/3 74/74/3 78/76/3 44/77/3
f 82/80/4 84/127/4 77/69/4 78/76/4
f 83/128/2 81/129/2 76/75/2 73/66/2
f 75/73/24 76/75/24 86/130/24 85/131/24
f 80/132/3 79/78/3 74/74/3 75/73/3
f 83/128/2 73/66/2 77/69/2 84/127/2
f 23/15/2 83/128/2 84/127/2 41/81/2
f 36/32/3 24/16/3 79/78/3 80/132/3
f 35/54/8 36/32/8 80/132/8 81/129/8
f 23/15/2 35/54/2 81/129/2 83/128/2
f 42/79/4 41/81/4 84/127/4 82/80/4
f 74/74/3 79/78/3 82/80/3 78/76/3
f 88/133/5 87/134/5 91/135/5 92/136/5
f 81/129/25 80/132/25 87/134/25 88/133/25
f 76/75/26 81/129/26 88/133/26 86/130/26
f 80/132/27 75/73/27 85/131/27 87/134/27
f 92/136/8 91/135/8 89/137/8 90/138/8
f 87/134/3 85/131/3 89/137/3 91/135/3
f 86/130/2 88/133/2 92/136/2 90/138/2
f 85/131/1 86/130/1 90/138/1 89/137/1
