# Blender v2.91.2 OBJ File: ''
# www.blender.org
mtllib sword.mtl
o Cube_Cube.001
v -0.041524 -1.292335 0.127684
v -0.041524 -0.877096 0.127684
v -0.041524 -1.292335 -0.127684
v -0.041524 -0.877096 -0.127684
v 0.041524 -1.292335 0.127684
v 0.041524 -0.877096 0.127684
v 0.041524 -1.292335 -0.127684
v 0.041524 -0.877096 -0.127684
v -0.041524 1.922904 0.127684
v -0.041524 1.922904 -0.127684
v 0.041524 1.922904 -0.127684
v 0.041524 1.922904 0.127684
v -0.041524 1.936031 0.127684
v -0.041524 1.936031 -0.127684
v 0.041524 1.936031 -0.127684
v 0.041524 1.936031 0.127684
v -0.041524 2.165735 0.025537
v -0.041524 2.165735 -0.025537
v 0.041524 2.165735 -0.025537
v 0.041524 2.165735 0.025537
v -0.041524 -1.362993 -0.082069
v -0.041524 -1.362993 0.082069
v 0.041524 -1.362993 -0.082069
v 0.041524 -1.362993 0.082069
v -0.041524 -2.085882 -0.082069
v -0.041524 -2.085882 0.082069
v 0.041524 -2.085882 -0.082069
v 0.041524 -2.085882 0.082069
v 0.041524 -1.292335 -0.127684
v -0.041524 -1.292335 -0.127684
v 0.041524 -1.362993 -0.082069
v -0.041524 -1.362993 -0.082069
v 0.041524 -1.292335 -0.127684
v -0.041524 -1.292335 -0.127684
v 0.041524 -1.362993 -0.082069
v -0.041524 -1.362993 -0.082069
v 0.041524 -1.292335 -0.127684
v -0.041524 -1.292335 -0.127684
v 0.041524 -1.362993 -0.082069
v -0.041524 -1.362993 -0.082069
v 0.041524 -1.292335 -0.127684
v -0.041524 -1.292335 -0.127684
v 0.041524 -1.362993 -0.082069
v -0.041524 -1.362993 -0.082069
v 0.041524 -1.292335 -0.127684
v -0.041524 -1.292335 -0.127684
v 0.041524 -1.362993 -0.082069
v -0.041524 -1.362993 -0.082069
v 0.041524 -1.292335 -0.127684
v -0.041524 -1.292335 -0.127684
v 0.041524 -1.362993 -0.082069
v -0.041524 -1.362993 -0.082069
v 0.041524 -1.098526 -0.537275
v -0.041524 -1.098526 -0.537275
v 0.041524 -1.169185 -0.491659
v -0.041524 -1.169185 -0.491659
v -0.041524 -1.098526 0.537275
v 0.041524 -1.098526 0.537275
v -0.041524 -1.169185 0.491659
v 0.041524 -1.169185 0.491659
vt 0.375000 0.000000
vt 0.625000 0.000000
vt 0.625000 0.250000
vt 0.375000 0.250000
vt 0.625000 0.500000
vt 0.375000 0.500000
vt 0.625000 0.750000
vt 0.375000 0.750000
vt 0.625000 1.000000
vt 0.375000 1.000000
vt 0.375000 0.500000
vt 0.375000 0.500000
vt 0.375000 0.500000
vt 0.625000 0.500000
vt 0.625000 0.750000
vt 0.625000 1.000000
vt 0.625000 0.750000
vt 0.625000 1.000000
vt 0.625000 0.000000
vt 0.625000 0.250000
vt 0.625000 0.500000
vt 0.625000 0.500000
vt 0.625000 0.750000
vt 0.625000 0.250000
vt 0.625000 0.000000
vt 0.875000 0.500000
vt 0.875000 0.750000
vt 0.625000 0.000000
vt 0.625000 0.250000
vt 0.625000 1.000000
vt 0.375000 0.750000
vt 0.375000 0.750000
vt 0.375000 0.500000
vt 0.375000 0.250000
vt 0.375000 0.000000
vt 0.375000 0.000000
vt 0.375000 0.000000
vt 0.125000 0.500000
vt 0.125000 0.750000
vt 0.375000 0.250000
vt 0.375000 0.000000
vt 0.375000 1.000000
vt 0.375000 1.000000
vt 0.375000 0.250000
vt 0.375000 0.250000
vt 0.375000 0.500000
vt 0.375000 0.250000
vt 0.375000 0.500000
vt 0.375000 0.500000
vt 0.375000 0.500000
vt 0.375000 0.250000
vt 0.375000 0.250000
vt 0.375000 0.250000
vt 0.375000 0.250000
vt 0.375000 0.250000
vt 0.375000 0.500000
vt 0.375000 0.500000
vt 0.375000 0.500000
vt 0.375000 0.500000
vt 0.375000 0.500000
vt 0.375000 0.500000
vt 0.375000 0.250000
vt 0.375000 0.250000
vt 0.375000 0.250000
vt 0.375000 0.250000
vt 0.375000 0.250000
vt 0.375000 0.250000
vt 0.375000 0.500000
vt 0.375000 0.500000
vt 0.375000 0.750000
vt 0.375000 1.000000
vt 0.375000 1.000000
vt 0.375000 0.750000
vn -1.0000 0.0000 0.0000
vn 0.0000 0.0000 -1.0000
vn 1.0000 0.0000 0.0000
vn 0.0000 0.0000 1.0000
vn 0.0000 1.0000 0.0000
vn 0.0000 0.4063 0.9137
vn 0.0000 0.4063 -0.9137
vn 0.0000 -1.0000 0.0000
vn 0.0000 -0.5424 -0.8401
vn 0.0000 -0.9039 -0.4277
vn 0.0000 0.9039 0.4277
vn 0.0000 -0.5424 0.8401
vn 0.0000 0.9039 -0.4277
vn 0.0000 -0.9039 0.4277
usemtl None
s off
f 1/1/1 2/2/1 4/3/1 3/4/1
f 3/4/2 4/3/2 8/5/2 7/6/2
f 7/6/3 8/5/3 6/7/3 5/8/3
f 5/8/4 6/7/4 2/9/4 1/10/4
f 7/6/4 23/11/4 31/12/4 29/13/4
f 6/7/3 8/5/3 11/14/3 12/15/3
f 9/16/4 12/15/4 16/17/4 13/18/4
f 4/3/1 2/2/1 9/19/1 10/20/1
f 2/9/4 6/7/4 12/15/4 9/16/4
f 8/5/2 4/3/2 10/20/2 11/14/2
f 16/17/3 15/21/3 19/22/3 20/23/3
f 11/14/2 10/20/2 14/24/2 15/21/2
f 12/15/3 11/14/3 15/21/3 16/17/3
f 10/20/1 9/19/1 13/25/1 14/24/1
f 19/22/5 18/26/5 17/27/5 20/23/5
f 14/24/1 13/25/1 17/28/1 18/29/1
f 13/18/6 16/17/6 20/23/6 17/30/6
f 15/21/7 14/24/7 18/29/7 19/22/7
f 23/11/3 24/31/3 28/32/3 27/33/3
f 1/1/1 3/4/1 21/34/1 22/35/1
f 7/6/3 5/8/3 24/31/3 23/11/3
f 1/1/1 22/35/1 59/36/1 57/37/1
f 25/38/8 27/33/8 28/32/8 26/39/8
f 22/35/1 21/34/1 25/40/1 26/41/1
f 24/31/4 22/42/4 26/43/4 28/32/4
f 21/34/2 23/11/2 27/33/2 25/40/2
f 31/12/4 32/44/4 36/45/4 35/46/4
f 21/34/4 3/4/4 30/47/4 32/44/4
f 3/4/4 7/6/4 29/13/4 30/47/4
f 23/11/4 21/34/4 32/44/4 31/12/4
f 33/48/4 35/46/4 39/49/4 37/50/4
f 29/13/4 31/12/4 35/46/4 33/48/4
f 30/47/4 29/13/4 33/48/4 34/51/4
f 32/44/4 30/47/4 34/51/4 36/45/4
f 40/52/4 38/53/4 42/54/4 44/55/4
f 34/51/4 33/48/4 37/50/4 38/53/4
f 36/45/4 34/51/4 38/53/4 40/52/4
f 35/46/4 36/45/4 40/52/4 39/49/4
f 41/56/4 43/57/4 47/58/4 45/59/4
f 39/49/4 40/52/4 44/55/4 43/57/4
f 37/50/4 39/49/4 43/57/4 41/56/4
f 38/53/4 37/50/4 41/56/4 42/54/4
f 45/59/4 47/58/4 51/60/4 49/61/4
f 42/54/4 41/56/4 45/59/4 46/62/4
f 44/55/4 42/54/4 46/62/4 48/63/4
f 43/57/4 44/55/4 48/63/4 47/58/4
f 52/64/1 50/65/1 54/66/1 56/67/1
f 46/62/4 45/59/4 49/61/4 50/65/4
f 48/63/4 46/62/4 50/65/4 52/64/4
f 47/58/4 48/63/4 52/64/4 51/60/4
f 54/66/9 53/68/9 55/69/9 56/67/9
f 51/60/10 52/64/10 56/67/10 55/69/10
f 49/61/3 51/60/3 55/69/3 53/68/3
f 50/65/11 49/61/11 53/68/11 54/66/11
f 58/70/12 57/71/12 59/72/12 60/73/12
f 5/8/13 1/10/13 57/71/13 58/70/13
f 24/31/3 5/8/3 58/70/3 60/73/3
f 22/42/14 24/31/14 60/73/14 59/72/14
